<?xml version="1.0" encoding="utf-8"?>
<!-- Generator: Adobe Illustrator 26.0.3, SVG Export Plug-In . SVG Version: 6.00 Build 0)  -->
<svg version="1.1" id="Layer_1" xmlns="http://www.w3.org/2000/svg" xmlns:xlink="http://www.w3.org/1999/xlink" x="0px" y="0px"
	 viewBox="0 0 66 66" style="enable-background:new 0 0 66 66;" xml:space="preserve">
<style type="text/css">
	.st0{fill-rule:evenodd;clip-rule:evenodd;fill:none;}
	.st1{fill-rule:evenodd;clip-rule:evenodd;fill:#75B2E1;}
</style>
<path class="st0" d="M32.99,0.01c18.23,0,33,14.77,33,33c0,18.23-14.77,33-33,33c-18.23,0-33-14.77-33-33
	C-0.01,14.78,14.77,0.01,32.99,0.01z"/>
<path class="st0" d="M31-1.41h4v68h-4V-1.41z"/>
<path class="st0" d="M67.51,31v4h-68v-4H67.51z"/>
<path class="st1" d="M34.94,30.37V0.1c16.63,0.96,29.93,13.65,30.93,30.28H34.94z M0.55,30.37c1-16.63,13.76-29.35,30.39-30.28
	v30.28H0.55z M30.94,34.37v30.94C14.3,64.32,1.45,51.01,0.54,34.37H30.94z M65.87,34.37c-0.99,16.63-14.3,29.95-30.93,30.94V34.37
	H65.87z"/>
</svg>
